<?xml version="1.0" encoding="UTF-8"?>
<!DOCTYPE svg PUBLIC "-//W3C//DTD SVG 1.1//EN" "http://www.w3.org/Graphics/SVG/1.1/DTD/svg11.dtd">
<!-- Creator: CorelDRAW X8 -->
<svg xmlns="http://www.w3.org/2000/svg" xml:space="preserve" width="16.1599mm" height="14.7644mm" version="1.1" style="shape-rendering:geometricPrecision; text-rendering:geometricPrecision; image-rendering:optimizeQuality; fill-rule:evenodd; clip-rule:evenodd"
viewBox="0 0 238 218"
 xmlns:xlink="http://www.w3.org/1999/xlink">
 <defs>
  <style type="text/css">
   <![CDATA[
    .fil0 {fill:#066D87}
    .fil1 {fill:white}
   ]]>
  </style>
 </defs>
 <g id="Camada_x0020_1">
  <metadata id="CorelCorpID_0Corel-Layer"/>
  <rect class="fil0" width="238" height="218"/>
  <path class="fil1" d="M199 135c-2,-26 -19,-39 -48,-39l-71 0c-12,0 -19,-7 -19,-18 0,-12 7,-19 19,-19l112 0 0 -27 -112 0c-30,0 -47,18 -47,43 0,25 18,44 47,44l71 0c13,0 21,6 22,16l26 0zm-103 24l-61 0 0 27 61 0 0 -27z"/>
 </g>
</svg>
